<svg xmlns="http://www.w3.org/2000/svg" xmlns:xlink="http://www.w3.org/1999/xlink" id="Capa_1" x="0px" y="0px" viewBox="0 0 500 146" style="enable-background:new 0 0 500 146;" xml:space="preserve">
<style type="text/css">
	.st0{fill:#020203;}
</style>
<g>
	<path class="st0" d="M147.72,2.9c4.02,0,6.28,1.1,6.28,5.83v127.23c0,4.72-2.26,5.83-6.28,5.83v0.9h19.34v-0.9   c-4.02,0-6.28-1.1-6.28-5.83V8.72c0-4.72,2.26-5.83,6.28-5.83v-0.9h-19.34V2.9z"></path>
	<path class="st0" d="M173.01,2.9c4.27,0,6.33,1.1,6.33,5.83v127.23c0,4.72-2.06,5.83-6.33,5.83v0.9h64.03v-13.97h-0.91   c-0.6,6.98-3.22,13.06-10.8,13.06H192c-1.61,0-5.88-0.9-5.88-5.63V72.89h18.25c6.98,0,10.8,5.18,10.8,12.86h0.9V58.92h-0.9   c0,7.69-3.82,13.06-10.8,13.06h-18.25V8.72c0-5.18,4.27-5.83,5.88-5.83h33.32c7.04,0,10.8,5.22,10.8,13.07h0.91V1.99h-64.03V2.9z"></path>
	<path class="st0" d="M292.11,136.61V7.62c0-4.72,1.81-4.72,3.87-4.72v-0.9h-8.64v0.9c2.06,0,3.87,0,3.87,4.72v127.93L256.99,8.52   c-1.21-4.47,2.26-5.63,5.38-5.63v-0.9h-19.34v0.9c0.8,0,4.32-0.25,5.63,2.72v131.45c0,4.72-1.81,4.72-3.82,4.72v0.9h8.54v-0.9   c-2.01,0-3.82,0-3.82-4.72V6.97l34.82,129.84c1.36,5.22-2.36,4.97-5.48,4.97v0.9h19.34v-0.9   C297.99,141.78,294.17,141.33,292.11,136.61z"></path>
	<path class="st0" d="M358.92,15.96V1.99H303.1v13.97h0.9c0.25-6.93,3.47-13.07,10.8-13.07h6.73c1.36,0,6.08,0.45,6.08,5.83v127.23   c0,4.72-2.26,5.83-6.28,5.83v0.9h19.34v-0.9c-4.02,0-6.28-1.1-6.28-5.83V8.72c0-5.38,4.72-5.83,6.08-5.83h6.73   c7.34,0,10.55,6.13,10.8,13.07H358.92z"></path>
	<path class="st0" d="M444.34,3.61c-37.4-9.94-76.76,12-87.06,50.75c-10.05,37.83,12.68,76.73,50.51,86.78   c37.2,9.88,76.56-12.05,86.84-50.75C504.64,52.75,481.97,13.61,444.34,3.61z M492.26,83.67c-10.06,37.88-51.42,62.03-89.31,51.97   c-33.26-8.84-52.14-41.3-43.29-74.62c10.05-37.83,51.11-61.65,88.86-52.09C482.36,17.45,501.17,50.16,492.26,83.67z"></path>
	<path class="st0" d="M74.67,6.84c4.06-2.78,9.53-4.2,16.17-3.94c10.69,0.41,20.62,4.47,30.45,10.1c5.04,2.89,7.73,7.18,7.24,13.28   l0.92,0.04l0.52-13.44c-3.03-0.78-19.36-6.81-20.97-7.44c-9.8-3.69-14.87-4.19-19.66-4.38C80.26,0.71,72.81,3.24,67.65,7.8   c1.24,0.45,2.56,0.93,3.89,1.41C72.48,8.28,73.52,7.48,74.67,6.84z"></path>
	<path class="st0" d="M103.44,60.47c-18.21-11.46-37.6-20.36-36.93-37.66c0.08-1.97,0.38-3.8,0.85-5.52   c0.41-2.32,1.34-4.45,2.64-6.26c-1.25-0.66-2.5-1.3-3.76-1.89c-3.87,4.05-6.14,9.41-6.38,15.65c-0.7,18.02,15.78,28.39,37.46,40.95   c20.69,11.96,34.92,27.6,34.16,47.2c-0.74,19.14-12.15,32.2-34.49,31.34c-7.6-0.29-14.84-2.37-21.46-5.73   c-0.53,0.38-1.09,0.73-1.65,1.08c6.82,3.03,15.43,5.48,23.99,5.81c23.52,0.91,39.07-14.04,39.89-35.21   C138.65,87.17,125.09,74.1,103.44,60.47z"></path>
	<path class="st0" d="M49.27,144.28c-19.14-0.74-36.01-12.61-46.36-28.5L2,115.74c-0.08,2,2.31,6.32,4.81,9.27   c3.31,3.92,6.6,6.95,11.03,10.04c6.9,4.81,19.68,9.89,32.31,10.38c9.31,0.36,17.34-1.8,23.73-5.81c-0.78-0.35-1.54-0.7-2.27-1.06   C66.07,142.53,58.65,144.64,49.27,144.28z"></path>
	<path class="st0" d="M90.04,110.22c0.89-23.06-12.67-36.12-34.32-49.75c-18.21-11.46-37.6-20.36-36.93-37.66   C19.29,10.03,28.3,2.33,43.11,2.9c8.04,0.31,15.66,2.69,23.13,6.24c0.45-0.47,0.92-0.91,1.41-1.34c-3.2-1.17-5.8-2.14-6.39-2.37   c-9.8-3.69-14.87-4.19-19.66-4.38c-17.36-0.67-28.9,9.18-29.46,23.74c-0.7,18.02,15.78,28.39,37.46,40.95   c20.69,11.96,34.92,27.6,34.16,47.2c-0.4,10.31-3.92,18.82-10.55,24.38c0.76,0.43,1.54,0.83,2.32,1.23   C84.31,132.31,89.57,122.29,90.04,110.22z"></path>
	<path class="st0" d="M73.21,137.32c-0.52,0.43-1.05,0.85-1.6,1.25c0.73,0.36,1.49,0.71,2.27,1.06c0.56-0.35,1.12-0.7,1.65-1.08   C74.75,138.15,73.97,137.75,73.21,137.32z"></path>
	<path class="st0" d="M66.24,9.14c1.26,0.6,2.51,1.23,3.76,1.89c0.47-0.65,0.98-1.26,1.54-1.82c-1.33-0.48-2.65-0.96-3.89-1.41   C67.16,8.23,66.69,8.67,66.24,9.14z"></path>
	<path class="st0" d="M70,11.03c-1.3,1.81-2.22,3.93-2.64,6.26c0.63-2.29,1.59-4.34,2.87-6.13C70.16,11.12,70.08,11.08,70,11.03z"></path>
	<path class="st0" d="M71.76,9.29c0.87-0.91,1.84-1.72,2.9-2.45c-1.14,0.64-2.19,1.44-3.12,2.37C71.62,9.24,71.69,9.27,71.76,9.29z"></path>
	<path class="st0" d="M71.76,9.29c-0.07-0.03-0.15-0.05-0.22-0.08c-0.56,0.56-1.08,1.17-1.54,1.82c0.08,0.04,0.16,0.09,0.23,0.13   C70.71,10.51,71.21,9.88,71.76,9.29z"></path>
</g>
</svg>